<svg xmlns="http://www.w3.org/2000/svg" xmlns:xlink="http://www.w3.org/1999/xlink" viewBox="44.61 103.39 75.37 75.37" preserveAspectRatio="xMidYMid meet" role="img" aria-label="Aiguide"><defs><g/><clipPath id="e5b6784871"><path d="M 86 44 L 136 44 L 136 110.972656 L 86 110.972656 Z M 86 44 " clip-rule="nonzero"/></clipPath><clipPath id="b94e974482"><rect x="0" width="322" y="0" height="111"/></clipPath></defs><g transform="matrix(1, 0, 0, 1, 51, 85)"><g clip-path="url(#b94e974482)"><g fill="#5170ff" fill-opacity="1"><g transform="translate(1.952303, 87.00174)"><g><path d="M 36.5 -61.984375 L 59 -2.140625 C 59.0625 -2.015625 59.109375 -1.882812 59.140625 -1.75 C 59.171875 -1.613281 59.1875 -1.5 59.1875 -1.40625 C 59.1875 -1 59.035156 -0.660156 58.734375 -0.390625 C 58.441406 -0.128906 58.03125 0 57.5 0 L 46.390625 0 C 45.890625 0 45.46875 -0.109375 45.125 -0.328125 C 44.789062 -0.546875 44.53125 -0.9375 44.34375 -1.5 L 40.65625 -12.78125 L 37.25 -12.78125 C 33.476562 -12.78125 30.363281 -13.503906 27.90625 -14.953125 C 25.445312 -16.398438 23.691406 -18.304688 22.640625 -20.671875 C 21.140625 -15.847656 19.257812 -11.890625 17 -8.796875 C 14.75 -5.703125 12.144531 -3.304688 9.1875 -1.609375 C 6.238281 0.0859375 2.988281 1.242188 -0.5625 1.859375 L 23.515625 -61.984375 C 23.921875 -62.972656 24.640625 -63.46875 25.671875 -63.46875 L 34.34375 -63.46875 C 35.375 -63.46875 36.09375 -62.972656 36.5 -61.984375 Z M 30.0625 -44.984375 L 23.75 -24.265625 L 36.875 -24.265625 Z M 30.0625 -44.984375 "/></g></g></g></g></g></svg>